<mxfile host="app.diagrams.net" modified="2024-01-16T15:05:13.015Z" agent="Mozilla/5.0 (Windows NT 10.0; Win64; x64) AppleWebKit/537.36 (KHTML, like Gecko) Chrome/120.0.0.0 Safari/537.36 Edg/120.0.0.0" etag="P2ED2TM5GOWOYFG6dcfk" version="22.1.19" type="github">
  <diagram name="第 1 页" id="e0tXGLQbWe1YhPj0isI4">
    <mxGraphModel dx="906" dy="579" grid="1" gridSize="10" guides="1" tooltips="1" connect="1" arrows="1" fold="1" page="1" pageScale="1" pageWidth="827" pageHeight="1169" math="0" shadow="0">
      <root>
        <mxCell id="0" />
        <mxCell id="1" parent="0" />
        <mxCell id="T14ChnWQ33sPh7HlbQXI-1" value="&lt;font face=&quot;Times New Roman&quot; style=&quot;font-size: 15px;&quot;&gt;AH股临时停牌传将与&lt;/font&gt;" style="whiteSpace=wrap;html=1;align=left;strokeColor=none;fillColor=none;fontSize=15;fontStyle=1" parent="1" vertex="1">
          <mxGeometry x="300" y="80" width="150" height="40" as="geometry" />
        </mxCell>
        <mxCell id="T14ChnWQ33sPh7HlbQXI-5" value="东方航空" style="rounded=1;arcSize=10;whiteSpace=wrap;html=1;align=center;dashed=1;strokeColor=#FF9933;fontSize=15;fontStyle=1" parent="1" vertex="1">
          <mxGeometry x="210" y="80" width="90" height="40" as="geometry" />
        </mxCell>
        <mxCell id="T14ChnWQ33sPh7HlbQXI-7" value="上航" style="rounded=1;arcSize=10;whiteSpace=wrap;html=1;align=center;dashed=1;strokeColor=#FF9933;fontSize=15;fontStyle=1" parent="1" vertex="1">
          <mxGeometry x="450" y="80" width="80" height="40" as="geometry" />
        </mxCell>
        <mxCell id="T14ChnWQ33sPh7HlbQXI-9" value="&lt;font style=&quot;font-size: 15px;&quot; face=&quot;Times New Roman&quot;&gt;Relation: unknown&lt;/font&gt;" style="rounded=1;arcSize=10;whiteSpace=wrap;html=1;align=center;fillColor=#FF8000;strokeColor=#FF0000;fontSize=15;fontStyle=1" parent="1" vertex="1">
          <mxGeometry x="327.5" y="240" width="125" height="40" as="geometry" />
        </mxCell>
        <mxCell id="T14ChnWQ33sPh7HlbQXI-13" value="合并" style="whiteSpace=wrap;html=1;align=left;strokeColor=none;fillColor=none;fontSize=15;fontStyle=1" parent="1" vertex="1">
          <mxGeometry x="544" y="80" width="40" height="40" as="geometry" />
        </mxCell>
        <mxCell id="T14ChnWQ33sPh7HlbQXI-14" value="&lt;font face=&quot;Times New Roman&quot; style=&quot;font-size: 15px;&quot;&gt;A Natural Language Sentence&lt;/font&gt;" style="whiteSpace=wrap;html=1;align=left;strokeColor=none;fillColor=none;fontSize=15;fontStyle=1" parent="1" vertex="1">
          <mxGeometry x="290" y="30" width="195" height="40" as="geometry" />
        </mxCell>
        <mxCell id="T14ChnWQ33sPh7HlbQXI-21" style="edgeStyle=orthogonalEdgeStyle;rounded=0;orthogonalLoop=1;jettySize=auto;html=1;exitX=0.5;exitY=0;exitDx=0;exitDy=0;entryX=0;entryY=0.5;entryDx=0;entryDy=0;curved=1;fontSize=15;fontStyle=1" parent="1" source="T14ChnWQ33sPh7HlbQXI-19" target="T14ChnWQ33sPh7HlbQXI-9" edge="1">
          <mxGeometry relative="1" as="geometry" />
        </mxCell>
        <mxCell id="T14ChnWQ33sPh7HlbQXI-19" value="东方航空" style="rounded=1;arcSize=10;whiteSpace=wrap;html=1;align=center;dashed=1;fillColor=#ffcc99;strokeColor=#36393d;fontSize=15;fontStyle=1" parent="1" vertex="1">
          <mxGeometry x="255" y="320" width="100" height="40" as="geometry" />
        </mxCell>
        <mxCell id="T14ChnWQ33sPh7HlbQXI-26" style="edgeStyle=orthogonalEdgeStyle;rounded=0;orthogonalLoop=1;jettySize=auto;html=1;exitX=0.5;exitY=0;exitDx=0;exitDy=0;entryX=1;entryY=0.5;entryDx=0;entryDy=0;curved=1;fontSize=15;fontStyle=1" parent="1" source="T14ChnWQ33sPh7HlbQXI-20" target="T14ChnWQ33sPh7HlbQXI-9" edge="1">
          <mxGeometry relative="1" as="geometry" />
        </mxCell>
        <mxCell id="T14ChnWQ33sPh7HlbQXI-20" value="上航" style="rounded=1;arcSize=10;whiteSpace=wrap;html=1;align=center;dashed=1;fillColor=#ffcc99;strokeColor=#36393d;fontSize=15;fontStyle=1" parent="1" vertex="1">
          <mxGeometry x="422.5" y="320" width="100" height="40" as="geometry" />
        </mxCell>
        <mxCell id="T14ChnWQ33sPh7HlbQXI-27" value="" style="html=1;shadow=0;dashed=0;align=center;verticalAlign=middle;shape=mxgraph.arrows2.arrow;dy=0.6;dx=40;direction=south;notch=0;fillColor=#ffe6cc;strokeColor=#d79b00;fontSize=15;fontStyle=1" parent="1" vertex="1">
          <mxGeometry x="352.5" y="130" width="70" height="100" as="geometry" />
        </mxCell>
        <mxCell id="jTw0942X2GlWAdndkURe-2" value="&lt;font face=&quot;Times New Roman&quot; style=&quot;font-size: 15px;&quot;&gt;Relation Extraction&lt;/font&gt;" style="text;html=1;strokeColor=none;fillColor=none;align=center;verticalAlign=middle;whiteSpace=wrap;rounded=0;fontSize=15;fontStyle=1" parent="1" vertex="1">
          <mxGeometry x="414" y="150" width="130" height="40" as="geometry" />
        </mxCell>
      </root>
    </mxGraphModel>
  </diagram>
</mxfile>
